<svg width="21" height="24" viewBox="0 0 21 24" fill="none" xmlns="http://www.w3.org/2000/svg">
<path d="M9.87097 23.5521C9.63441 23.2861 9.52151 22.9718 9.53226 22.6091C9.54301 22.2465 9.66667 21.9321 9.90323 21.6662L16.9032 13.7964H1.16129C0.83871 13.7964 0.564516 13.6694 0.33871 13.4156C0.112903 13.1617 0 12.8413 0 12.4545C0 12.0918 0.112903 11.7836 0.33871 11.5297C0.564516 11.2758 0.83871 11.1489 1.16129 11.1489H16.9032L9.90323 3.27907C9.66667 3.01311 9.54301 2.69276 9.53226 2.318C9.52151 1.94325 9.63441 1.62289 9.87097 1.35694C10.1075 1.09099 10.3871 0.958008 10.7097 0.958008C11.0323 0.958008 11.3118 1.09099 11.5484 1.35694L20.6129 11.5478C20.7419 11.6929 20.8387 11.838 20.9032 11.983C20.9677 12.1281 21 12.2853 21 12.4545C21 12.6237 20.9677 12.7869 20.9032 12.9441C20.8387 13.1012 20.7419 13.2524 20.6129 13.3974L11.5484 23.5883C11.3118 23.8543 11.0323 23.9812 10.7097 23.9691C10.3871 23.957 10.1075 23.818 9.87097 23.5521Z" fill="#191E20"/>
</svg>
